<!-- Generated by IcoMoon.io -->
<svg version="1.1" xmlns="http://www.w3.org/2000/svg" width="42" height="32" viewBox="0 0 42 32">
<title>icon-play</title>
<path fill="#63d1bb" d="M40.35 7.553c0 0-0.383-2.917-1.575-4.194-1.512-1.682-3.194-1.692-3.971-1.788-5.546-0.426-13.86-0.426-13.86-0.426h-0.021c0 0-8.314 0-13.86 0.426-0.777 0.096-2.459 0.107-3.97 1.788-1.182 1.288-1.576 4.194-1.576 4.194s-0.373 3.417-0.373 6.834v3.204c0 3.417 0.394 6.834 0.394 6.834s0.383 2.917 1.575 4.194c1.512 1.682 3.481 1.628 4.364 1.81 3.172 0.319 13.466 0.425 13.466 0.425s8.325-0.010 13.871-0.436c0.777-0.096 2.459-0.107 3.97-1.789 1.182-1.277 1.576-4.194 1.576-4.194s0.394-3.417 0.394-6.834v-3.204c-0.010-3.428-0.404-6.845-0.404-6.845z"></path>
<path fill="#fff" d="M20.939 31.999h-0.007c-0.422-0.005-10.382-0.111-13.569-0.432l-0.058-0.006-0.057-0.012c-0.113-0.023-0.278-0.045-0.469-0.070-1.042-0.137-2.979-0.39-4.511-2.089-1.396-1.505-1.822-4.483-1.866-4.818l-0.002-0.018c-0.016-0.142-0.402-3.522-0.402-6.965v-3.204c0-3.44 0.364-6.816 0.38-6.958l0.004-0.030c0.045-0.334 0.481-3.299 1.862-4.81 1.663-1.847 3.55-2.039 4.458-2.131 0.080-0.008 0.154-0.015 0.22-0.024l0.052-0.005c5.526-0.424 13.864-0.429 13.948-0.429h0.021c0.084 0 8.422 0.005 13.948 0.429l0.052 0.005c0.066 0.009 0.14 0.016 0.22 0.024 0.907 0.092 2.793 0.284 4.455 2.127 1.396 1.505 1.822 4.483 1.866 4.818l0.002 0.018c0.016 0.142 0.402 3.52 0.412 6.972v3.208c0 3.443-0.385 6.823-0.402 6.965l-0.003 0.022c-0.045 0.335-0.481 3.31-1.864 4.812-1.662 1.846-3.549 2.038-4.456 2.13-0.080 0.008-0.154 0.015-0.221 0.024l-0.052 0.005c-5.525 0.424-13.873 0.44-13.956 0.44l-0.006-0zM7.645 29.295c3.112 0.303 12.991 0.412 13.304 0.415 0.273-0 8.38-0.020 13.753-0.431 0.074-0.009 0.154-0.017 0.241-0.026 0.764-0.077 1.918-0.195 2.991-1.388l0.011-0.012c0.76-0.822 1.187-2.883 1.28-3.559 0.025-0.214 0.385-3.478 0.385-6.692v-3.204c-0.010-3.229-0.373-6.504-0.396-6.704-0.133-0.991-0.597-2.825-1.276-3.554l-0.015-0.016c-1.072-1.194-2.227-1.311-2.991-1.388-0.087-0.009-0.167-0.017-0.241-0.026-5.438-0.415-13.665-0.421-13.747-0.421h-0.021c-0.082 0-8.31 0.005-13.747 0.421-0.074 0.009-0.154 0.017-0.241 0.026-0.764 0.078-1.917 0.195-2.991 1.388l-0.008 0.009c-0.761 0.829-1.188 2.882-1.283 3.559-0.026 0.246-0.364 3.495-0.364 6.696v3.204c0 3.225 0.362 6.491 0.385 6.693 0.133 0.991 0.596 2.825 1.276 3.554l0.015 0.016c0.966 1.075 2.207 1.238 3.113 1.356 0.2 0.025 0.391 0.050 0.567 0.084z"></path>
<path fill="#fff" d="M15.995 8.564v14.861l12.38-7.43z"></path>
</svg>
