<!-- Generated by IcoMoon.io -->
<svg version="1.1" xmlns="http://www.w3.org/2000/svg" width="21" height="32" viewBox="0 0 21 32">
<title>icon-map-pin</title>
<path fill="#fff" d="M17.884 2.929c-4.093-3.906-10.721-3.906-14.815 0-4.092 3.904-4.092 10.237 0 14.14 0 0 7.402 6.931 7.402 14.93 0-8 7.41-14.93 7.41-14.93 4.094-3.903 4.094-10.236 0.002-14.14z"></path>
<path fill="#6bc6b3" d="M14.932 14.451c-0.202-1.040 0.041-2.205 0.009-3.265-0.037-1.192-0.226-2.376-0.211-3.57 0.012-0.966 0.173-1.96-0.16-2.886 0.021-0.105 0.043-0.21 0.062-0.316 0.086-0.464-1.453-0.219-1.695 0.206-0.152 0.125-0.23 0.273-0.166 0.425 0.016 0.038 0.031 0.077 0.045 0.116-0.291 1.424-0.697 2.802-1.164 4.182-0.179 0.528-0.395 1.044-0.577 1.57-0.258-0.49-0.52-0.975-0.73-1.501-0.61-1.525-1.161-3.067-1.905-4.535 0.084-0.679-1.423-0.608-1.721 0.014-0.359 0.753-0.313 1.512-0.195 2.317 0.133 0.907 0.157 1.799 0.168 2.716 0.021 1.767 0.159 3.53 0.185 5.296-0.157 0.175-0.205 0.391-0.040 0.611 0.072 0.096 0.16 0.17 0.254 0.244 0.402 0.322 1.555 0.048 1.553-0.565-0.006-1.832-0.139-3.661-0.187-5.492-0.005-0.179-0.008-0.358-0.011-0.538 0.025 0.064 0.050 0.129 0.076 0.193 0.284 0.713 0.582 1.405 0.971 2.068 0.385 0.656 0.579 1.362 0.801 2.078-0.084 0.096-0.134 0.205-0.104 0.315-0.017 0.080 0.031 0.13 0.112 0.16 0.284 0.243 0.818 0.122 1.115-0.003 0.127-0.053 0.249-0.116 0.367-0.188 0.153-0.094 0.392-0.302 0.324-0.515-0.013-0.041-0.026-0.083-0.038-0.124 0.209-0.564 0.315-1.151 0.429-1.746 0.121-0.635 0.348-1.236 0.575-1.837 0.023 0.275 0.047 0.55 0.070 0.824 0.090 1.135 0.015 2.254 0.004 3.389-0.004 0.377 0.024 0.726 0.097 1.094 0.030 0.152 0.163 0.803 0.125 0.839-0.271 0.251-0.192 0.558 0.171 0.638 0.406 0.089 0.924-0.047 1.231-0.33 0.532-0.491 0.28-1.263 0.16-1.885z"></path>
</svg>
