<svg aria-hidden="true" style="position: absolute; width: 0; height: 0; overflow: hidden;" version="1.1" xmlns="http://www.w3.org/2000/svg" xmlns:xlink="http://www.w3.org/1999/xlink">
<defs>
<symbol id="icon-bg-zigzag-fill" viewBox="0 0 1082 32">
<title>bg-zigzag-fill</title>
<path fill="#fff" style="fill: var(--color1, #fff)" d="M1055.296 0c-13.529 0-13.529 13.176-27.058 13.176s-13.528-13.176-27.057-13.176-13.528 13.176-27.057 13.176c-13.529 0-13.529-13.176-27.059-13.176s-13.528 13.176-27.057 13.176-13.528-13.176-27.057-13.176-13.528 13.176-27.058 13.176-13.529-13.176-27.058-13.176-13.528 13.176-27.058 13.176-13.529-13.176-27.059-13.176c-13.526 0-13.526 13.176-27.052 13.176-13.529 0-13.529-13.176-27.059-13.176-13.527 0-13.527 13.176-27.053 13.176-13.528 0-13.528-13.176-27.056-13.176s-13.528 13.176-27.056 13.176c-13.528 0-13.528-13.176-27.055-13.176s-13.528 13.176-27.057 13.176c-13.529 0-13.529-13.176-27.060-13.176-13.528 0-13.528 13.176-27.057 13.176s-13.528-13.176-27.057-13.176-13.528 13.176-27.057 13.176c-13.528 0-13.528-13.176-27.057-13.176s-13.529 13.176-27.059 13.176c-13.53 0-13.53-13.176-27.062-13.176-13.529 0-13.529 13.176-27.059 13.176s-13.529-13.176-27.060-13.176c-13.529 0-13.529 13.176-27.059 13.176s-13.53-13.176-27.060-13.176-13.529 13.176-27.060 13.176c-13.53 0-13.53-13.176-27.062-13.176-13.528 0-13.528 13.176-27.056 13.176-13.529 0-13.529-13.176-27.059-13.176s-13.529 13.176-27.060 13.176c-13.531 0-13.531-13.176-27.063-13.176s-13.531 13.176-27.064 13.176c-13.532 0-13.532-13.176-27.064-13.176s-13.532 13.176-27.064 13.176c-13.533 0-13.533-13.176-27.067-13.176s-13.533 13.176-27.067 13.176v18.824h1082.353v-18.824c-13.528 0-13.528-13.176-27.057-13.176z"></path>
</symbol>
<symbol id="icon-htmlacademy" viewBox="0 0 32 32">
<title>htmlacademy</title>
<path d="M16.107 2.667h-0.107l-10.507 1.12v19.307l10.507 6.24 10.507-6.24v-19.307l-10.4-1.12zM25.173 22.293l-9.173 5.44-9.173-5.44v-7.893l9.12 5.44v0.96l-6.24-3.733v0.96l6.293 3.787v1.013l-6.293-3.733v0.96l6.293 3.733 6.347-3.787v-4.053l2.827-1.707v8.053zM25.12 13.227l-2.507 1.493-1.173 0.693-5.493-3.253v0.96l4.693 2.827h-0.053l-0.107 0.053-0.693 0.373-3.893-2.293v0.96l3.093 1.813-0.747 0.48-2.293-1.387v0.96l1.547 0.907-1.547 0.907-9.067-5.387 9.067-5.44 9.173 5.333zM25.173 12.267l-9.227-5.44-9.12 5.44v-7.253l9.173-0.96 9.173 0.96v7.253z"></path>
</symbol>
<symbol id="icon-icon-cart" viewBox="0 0 34 32">
<title>icon-cart</title>
<path d="M33.182 12.273h-5.349l-5.784-11.568c-0.314-0.628-1.076-0.883-1.708-0.569-0.63 0.316-0.884 1.080-0.569 1.708l5.214 10.429h-15.514l5.215-10.429c0.314-0.63 0.059-1.394-0.569-1.708s-1.394-0.059-1.708 0.569l-5.784 11.568h-5.349c-0.703 0-1.273 0.57-1.273 1.273s0.57 1.273 1.273 1.273h0.267l1.452 5.078c-0.317 0.233-0.536 0.589-0.536 1.010 0 0.672 0.525 1.205 1.183 1.255l2.811 9.838h21.556l2.811-9.838c0.659-0.048 1.185-0.584 1.185-1.255 0-0.423-0.219-0.779-0.536-1.012l1.45-5.078h0.267c0.703 0 1.273-0.57 1.273-1.273s-0.574-1.272-1.277-1.272zM26.084 29.455h-17.712l-2.078-7.273h21.868l-2.078 7.273zM28.89 19.634h-23.325l-1.375-4.815h26.075l-1.375 4.815z"></path>
</symbol>
<symbol id="icon-icon-fb" viewBox="0 0 17 32">
<title>icon-fb</title>
<path d="M13.464 5.994c1.184 0.033 2.301 0 3.095-0.346 0.451-0.944 0.642-2.14 0.715-3.451-0.219-0.017-0.072-0.389-0.239-0.461-0.033-0.233-0.321-0.225-0.357-0.46-0.32-0.191-0.528-0.487-0.835-0.69-0.839-0.187-1.662-0.387-2.498-0.576-0.98 0.051-2.188-0.119-2.979 0.115-3.024-0.046-4.614 1.293-6.071 2.762-0.027 0.090-0.003 0.227-0.121 0.23-0.663 1.832-0.144 4.18-0.236 6.443 0.114 0.503 0.124 1.106 0.236 1.611-1.152 0.342-2.554 0.447-3.928 0.576-0.366 0.374-0.205 1.257-0.238 1.955 0.098 0.673 0.321 1.224 0.477 1.841 0.244 0.223 0.688 0.457 0.952 0.575 0.075 0.033 0.082 0.095 0.119 0.115 0.584 0.309 1.675 0.009 2.618 0.115-0.157 2.284 0.296 4.52 0 6.557 0.008 0.378 0.341 0.441 0.24 0.921-0.001 1.112-0.077 2.297 0.24 3.106-0.331 0.525-0.574 1.134-0.479 2.071 0.141 0.018 0.132 0.181 0.121 0.345-0.087 0.543 0.742 0.202 0.595 0.806 0.187 0.526-0.494 0.212-0.477 0.575v1.034c0.612 0.329 1.688 0.21 2.618 0.23 1.048-0.484 2.526-0.553 3.215-1.381 0.53 0.271 1.058-0.016 1.429-0.23-0.021-0.364 0.315-0.384 0.237-0.806-0.005-0.379-0.2-0.573-0.119-1.034v-3.336c-0.238-2.647-0.055-5.701-0.357-8.285 1.025-0.121 2.213-0.087 2.976-0.459 0.412-0.521 0.435-1.42 0.596-2.188 0.204-0.261 0.255-0.673 0.238-1.15 0.219-0.246 0.079-0.842 0.12-1.265-0.163-0.687-0.194-1.501-0.952-1.605-1.021-0.271-2.359 0.687-3.453 0.345 0.057-1.309-0.338-2.704 0-3.911 0.861-0.209 1.669-0.462 2.501-0.695zM9.056 11.516c0.135 0.293 0.293 0.561 0.478 0.806 0.091 0.025 0.234 0.003 0.237 0.117 1.376 0.065 2.539-0.080 3.574-0.345 0 1.152-0.313 2.001-0.598 2.877-0.764 0.052-1.694 0.346-2.26 0.229-0.319 0.191-0.429 0.584-0.716 0.806-0.057 0.509 0.164 0.571 0 0.92-0.232 0.158-0.063 0.705-0.237 0.919v1.727c0.098 0.324-0.169 0.298-0.12 0.574v4.027c-0.098 0.324 0.169 0.298 0.12 0.575v3.451c0.073 0.313-0.152 0.913 0.119 1.034-0.081 0.42-0.476-0.024-0.951 0.115-0.61 0.141-1.069 0.426-1.787 0.462 0.135-0.408 0.369-0.718 0.359-1.266 0.057-0.44-0.421-0.36-0.596-0.566 0.223-0.744 0.649-1.29 0.834-2.070 0.227-0.595 0.824-1.499 0.358-2.071-0.603-0.121-0.601 0.338-0.954 0.459-0.025 0.089-0.002 0.226-0.119 0.23-0.027 0.089-0.003 0.226-0.119 0.23 0.012 0.139-0.174 0.072 0 0 0.025-0.090 0.002-0.227 0.119-0.23 0.027-0.089 0.002-0.227 0.119-0.23v-0.345c0.425-0.664 0.774-1.402 0.954-2.301 0.22-0.323 0.327-0.757 0.476-1.151 0.18-0.302 0.393-1.003 0.12-1.38-0.597 0.038-0.919 0.341-1.074 0.805-0.369-0.218 0.186-0.501 0.12-0.805 0.159-0.267 0.195-0.653 0.357-0.92 0.233-0.477 0.651-1.505 0-1.843-0.506-0.027-0.707 0.239-0.835 0.575-0.247 0.221-0.496 0.442-0.596 0.806-0.431-0.081-0.165-0.839-0.238-1.266-0.077-0.6 0.141-1.038 0-1.38-0.646-0.922-2.339-0.121-3.691-0.345-0.125-0.354-0.256-1.136-0.12-1.38 1.206-0.102 2.862 0.232 3.691-0.23 0.028-0.090 0.003-0.227 0.12-0.23 0.109-0.835-0.313-1.155-0.595-1.612 0.268-0.931 0.046-2.332 0.12-3.451 0.269-0.163 0.379-0.478 0.595-0.69 0.129-1.103 0.777-1.704 0.834-2.875-0.315 0.001-0.701-0.064-0.715 0.23-0.349-0.132-0.441 0.553-0.595 0.23-0.129-0.625 0.284-0.723 0.357-1.151 0.692-0.483 1.399-0.947 2.143-1.38 2.010-0.282 5.366-0.518 7.026 0.229 0.059 0.711-0.331 0.986-0.239 1.727h-1.785c-1.261 0.277-2.294 0.776-3.453 1.151-0.277 0.076-0.319 0.382-0.596 0.46-0.042 0.457-0.26 0.746-0.359 1.15-0.091 1.652 0.154 2.989 0.118 4.593z"></path>
</symbol>
<symbol id="icon-icon-feature-ball" viewBox="0 0 32 32">
<title>icon-feature-ball</title>
<path d="M0.266 13.098c-0.356 1.93-0.357 3.92 0.007 5.866l3.837-2.988-3.844-2.878z"></path>
<path d="M22.718 1.476c-4.453-2.056-9.723-1.996-14.201 0.379l6.994 5.237 7.207-5.616z"></path>
<path d="M31.561 12.265l-4.479 3.489 4.595 3.44c0.462-2.276 0.431-4.644-0.116-6.929z"></path>
<path d="M8.573 30.176c4.51 2.359 9.984 2.467 14.644 0.105l-7.537-5.643-7.107 5.538z"></path>
<path d="M7.368 13.437l-5.803-4.344c-0.298 0.623-0.554 1.262-0.768 1.914l4.942 3.7 1.629-1.27z"></path>
<path d="M17.309 23.369l7.761 5.811c0.258-0.178 0.513-0.364 0.763-0.559 0.296-0.231 0.582-0.47 0.857-0.718l-7.751-5.804-1.629 1.27z"></path>
<path d="M10.625 10.899l-6.899-5.166c-0.43 0.513-0.824 1.049-1.181 1.604l6.452 4.831 1.628-1.269z"></path>
<path d="M20.568 20.83l7.533 5.641c0.438-0.506 0.842-1.035 1.207-1.584l-7.112-5.326-1.629 1.269z"></path>
<path d="M13.883 8.36l-7.184-5.378c-0.18 0.128-0.357 0.26-0.533 0.397-0.369 0.288-0.721 0.588-1.058 0.901l7.146 5.35 1.629-1.27z"></path>
<path d="M23.825 18.293l6.491 4.861c0.307-0.616 0.573-1.248 0.796-1.893l-5.657-4.236-1.629 1.268z"></path>
<path d="M24.622 2.519l-23.803 18.545c0.217 0.65 0.478 1.29 0.781 1.917l24.689-19.236c-0.532-0.448-1.090-0.857-1.667-1.225z"></path>
<path d="M28.621 6.167c-0.28-0.359-0.572-0.702-0.874-1.030l-25.153 19.596c0.244 0.374 0.505 0.742 0.785 1.101 0.132 0.17 0.268 0.334 0.406 0.497l25.22-19.651c-0.125-0.173-0.25-0.344-0.384-0.514z"></path>
<path d="M30.068 8.378l-24.9 19.4c0.506 0.466 1.037 0.896 1.59 1.287l24.17-18.832c-0.245-0.631-0.532-1.251-0.86-1.855z"></path>
</symbol>
<symbol id="icon-icon-feature-flower" viewBox="0 0 27 32">
<title>icon-feature-flower</title>
<path d="M13.714 31.999c7.573 0 13.714-6.142 13.714-13.714-7.573 0-13.714 6.141-13.714 13.714zM3.969 14.095c0 2.103 1.706 3.81 3.809 3.81 0.8 0 1.547-0.252 2.156-0.671l-0.031 0.289c0 2.103 1.707 3.81 3.81 3.81s3.809-1.707 3.809-3.81l-0.031-0.289c0.617 0.426 1.357 0.671 2.157 0.671 2.103 0 3.809-1.707 3.809-3.81 0-1.517-0.89-2.819-2.179-3.429 1.28-0.609 2.179-1.912 2.179-3.429 0-2.103-1.706-3.809-3.809-3.809-0.8 0-1.547 0.251-2.157 0.67l0.032-0.289c0-2.103-1.706-3.809-3.809-3.809s-3.81 1.707-3.81 3.809l0.031 0.289c-0.617-0.426-1.356-0.67-2.156-0.67-2.103 0-3.809 1.707-3.809 3.809 0 1.517 0.891 2.819 2.179 3.429-1.289 0.61-2.18 1.912-2.18 3.429zM13.714 6.857c2.103 0 3.809 1.706 3.809 3.809s-1.706 3.809-3.809 3.809-3.81-1.707-3.81-3.809c0-2.103 1.707-3.809 3.81-3.809zM0 18.285c0 7.573 6.141 13.714 13.714 13.714 0-7.573-6.141-13.714-13.714-13.714z"></path>
</symbol>
<symbol id="icon-icon-feature-gift" viewBox="0 0 32 32">
<title>icon-feature-gift</title>
<path d="M2.852 32h12.317v-13.702h-12.317v13.702zM30.612 8.733h-7.225c0.513-0.263 0.969-0.541 1.375-0.832 1.564-1.116 2.388-2.532 2.384-3.939 0.002-1.151-0.548-2.169-1.339-2.858-0.793-0.693-1.841-1.102-2.971-1.104-1.202-0.001-2.317 0.415-3.27 1.053-1.437 0.964-2.567 2.414-3.373 4.006-0.038 0.078-0.077 0.155-0.113 0.232-0.295-0.614-0.637-1.208-1.025-1.765-0.681-0.97-1.5-1.832-2.46-2.473-0.956-0.636-2.072-1.053-3.272-1.053-1.195 0.004-2.288 0.506-3.108 1.276-0.816 0.771-1.389 1.857-1.391 3.088-0.002 0.719 0.208 1.472 0.639 2.155 0.544 0.859 1.403 1.604 2.594 2.214h-6.489c-0.865 0-1.567 0.701-1.567 1.566v5.809h15.166v-7.376h1.845v7.376h15.166v-5.809c0.003-0.866-0.698-1.566-1.564-1.566zM8.585 6.429c-0.613-0.385-0.985-0.773-1.202-1.118-0.217-0.349-0.29-0.652-0.292-0.949-0.004-0.496 0.244-1.026 0.681-1.439 0.43-0.409 1.013-0.657 1.539-0.657h0.013c0.675 0 1.346 0.228 2.015 0.673 1.003 0.661 1.945 1.822 2.605 3.139 0.337 0.666 0.6 1.369 0.777 2.056-3.036-0.316-5.002-0.987-6.137-1.705zM18.964 4.827c0.549-0.785 1.192-1.444 1.859-1.887 0.67-0.444 1.342-0.673 2.016-0.673h0.006c0.565 0 1.1 0.217 1.472 0.542 0.371 0.331 0.562 0.728 0.564 1.153-0.004 0.504-0.268 1.24-1.445 2.1-1.121 0.813-3.055 1.648-6.035 2.231 0.286-1.184 0.834-2.435 1.563-3.466zM17.014 32h12.319v-13.702h-12.319v13.702z"></path>
</symbol>
<symbol id="icon-icon-feature-heart" viewBox="0 0 38 32">
<title>icon-feature-heart</title>
<path d="M37.965 10.036c0-5.543-4.494-10.035-10.035-10.035-3.911 0-7.292 2.241-8.947 5.506-1.655-3.265-5.036-5.506-8.947-5.506-5.543 0-10.035 4.493-10.035 10.035 0 10.484 16.837 21.965 18.983 21.965 2.147 0 18.983-11.43 18.983-21.965z"></path>
</symbol>
<symbol id="icon-icon-feature-money" viewBox="0 0 55 32">
<title>icon-feature-money</title>
<path d="M49.958 0h-45.387c-2.524 0-4.571 2.048-4.571 4.572v22.855c0 2.524 2.047 4.572 4.571 4.572h45.387c2.524 0 4.572-2.048 4.572-4.572v-22.855c0-2.524-2.048-4.572-4.572-4.572zM3.539 29.211v-26.030h47.068v26.030h-47.068z"></path>
<path d="M8.111 24.64h37.928v-16.887h-37.928v16.887zM27.265 9.975c3.437 0 6.223 2.786 6.223 6.222 0 3.437-2.785 6.222-6.223 6.222s-6.222-2.785-6.222-6.222c-0.001-3.436 2.784-6.222 6.222-6.222z"></path>
</symbol>
<symbol id="icon-icon-feature-rocket" viewBox="0 0 75 32">
<title>icon-feature-rocket</title>
<path d="M55.644 7.884c-5.034-1.34-10.82-2.301-17.059-2.3-3.99 0.001-7.532 0.335-10.642 0.86l-9.364-6.443-18.574 0.007 8.021 8.536h11.66c-6.322 2.206-9.33 4.852-9.33 4.852l0.003 5.213c0 0 3.193 2.639 9.567 4.856l-11.902-0.007-8.021 8.541 18.572 0.003 9.408-6.476c3.121 0.549 6.656 0.893 10.602 0.894 6.242-0.001 12.025-0.962 17.061-2.301-1.623-2.45-2.643-5.167-2.647-8.112 0.004-2.955 1.019-5.676 2.646-8.123z"></path>
<path d="M60.368 9.312c-1.772 2.215-2.718 4.486-2.712 6.681-0.010 2.204 0.934 4.469 2.716 6.69 8.833-2.984 14.382-6.682 14.382-6.682s-5.547-3.699-14.386-6.689z"></path>
</symbol>
<symbol id="icon-icon-flag" viewBox="0 0 18 32">
<title>icon-flag</title>
<path fill="#63d1bb" style="fill: var(--color3, #63d1bb)" d="M3.047 1.524v15.238l15.238-7.619-15.238-7.619zM0 32v-32h1.49v32h-1.49z"></path>
<path fill="#231f20" style="fill: var(--color4, #231f20)" d="M0 0h1.49v32h-1.49v-32z"></path>
</symbol>
<symbol id="icon-icon-insta" viewBox="0 0 33 32">
<title>icon-insta</title>
<path d="M32.648 18.218c-0.020-3.592-0.516-7.182-0.455-10.702-0.035-1.182-0.129-2.302-0.228-3.417-0.157-0.45-0.166-1.048-0.228-1.593-0.39-0.255-0.333-0.96-0.684-1.252-0.634-0.349-1.801-0.171-2.616-0.33-0.985-0.039-1.881-0.172-2.848-0.23-2.904-0.151-5.959-0.114-8.994-0.114-3.001 0-5.931-0.218-8.542-0.568h-3.303c-0.146 0.006-0.157 0.147-0.341 0.114-0.898 0.051-1.615 0.282-2.392 0.455-0.315 0.178-0.631 0.353-1.024 0.456-0.204 0.288-0.769 0.218-0.91 0.568-0.279 0.318 0.278 0.676 0 0.91v1.366c0.26 0.195 0.041 0.87 0.112 1.252v1.48c-0.025 1.921 0.201 3.595 0.114 5.58 0.7 4.143 0.561 9.805 0.114 14.119 0.232 0.868 0.544 1.657 0.682 2.619 0.384 0.718 0.502 1.699 1.024 2.28 0.753 0.309 1.849 0.279 2.847 0.343 0.574 0.147 1 0.439 1.71 0.45 4.264-0.315 8.244-0.231 12.64-0.343 4.056 0.36 8.703 0.282 12.412-0.342 0.292-0.201 0.192-0.793 0.342-1.14-0.084-0.577 0.31-0.673 0.342-1.138 0.197-3.592 0.246-7.183 0.225-10.824zM13.176 8.881c1.135-0.229 2.22-0.511 3.643-0.456 1.065 0.114 1.93 0.425 2.845 0.684 0.174 0.276-0.364 0.82 0.23 1.026v0.114c0.088 0.025 0.224 0.003 0.227 0.114 0.667 0.053 1.191 0.251 1.594 0.568 0.675 0.082 0.804 0.714 1.707 0.45-0.137 0.319-0.126 0.786-0.113 1.252 0.486 1.774 0.712 4.215 0.454 6.378-0.246 0.244-0.323 0.663-0.454 1.024-0.466 0.483-0.721 1.177-1.254 1.593-0.142 0.354-0.375 0.612-0.681 0.799-0.174 0.32-0.309 0.678-0.685 0.795-0.447 0.244-0.865 0.017-1.251-0.114-0.669 0.243-1.356 0.468-1.822 0.91-1.224-0.144-2.472-0.262-3.645-0.456-0.363-0.209-0.73-0.41-1.252-0.457-0.341-0.306-0.744-0.546-1.254-0.682-0.152-0.191-0.505-0.177-0.682-0.343-0.297-0.044-0.344-0.34-0.684-0.343-0.177-0.618-0.664-0.927-0.798-1.593-0.339-0.497-0.462-1.207-0.682-1.822-0.065-2.151 0.136-4.038 0.568-5.694 0.519-0.886 1.168-1.641 1.707-2.505 0.373 0.031 0.547-0.135 0.57-0.456 0.459 0.079 0.651-0.108 1.026-0.113 0.386 0.012 0.403-0.463 0.687-0.673zM10.671 4.782c-0.175-0.394-0.099-1.036-0.113-1.593-0.011-0.428 0.417-0.418 0.456-0.798-0.005-0.111-0.139-0.088-0.228-0.114 0.189-0.219 1.051-0.146 1.251 0 0.198 0.805-0.531 0.682-0.796 1.026 0.017 0.251 0.483 0.048 0.684 0.114 0.043 1.281-0.088 2.244 0 3.303h-0.684c-0.011 0.351 0.344 0.339 0.684 0.342-0.088 0.429 0.138 0.544 0.113 0.91-0.339 0.229-1.074 0.063-1.593 0.113-0.155-0.891 0.352-2.062 0.226-3.303zM9.646 2.391c0.132-0.019 0.201 0.024 0.226 0.114 0.268 0.38 0.015 1.024-0.114 1.366-0.259-0.268-0.039-1.023-0.113-1.48zM9.874 5.124c-0.198-0.104-0.252-0.356-0.228-0.684 0.198 0.106 0.251 0.357 0.228 0.684zM9.874 7.174c-0.087 0.208-0.123-0.067-0.114-0.228 0.087-0.208 0.121 0.067 0.114 0.228zM9.646 7.516c0.262-0.036 0.126 0.329 0.342 0.34-0.014 0.29-0.425 0.268-0.57 0.115 0.059-0.168 0.169-0.29 0.228-0.456zM6.115 5.692c0.009-0.162 0.019-0.321-0.114-0.342-0.109-1.099 0.195-2.122 0-2.959 0.375-0.232 1.153-0.063 1.708-0.115v1.708c-0.132 0.096-0.304 0.151-0.568 0.116-0.081 0.42 0.486 0.197 0.568 0.456 0.012 1.279-0.084 2.665 0.228 3.643-0.847-0.088-1.359 0.161-2.163 0.114 0.146-0.918-0.029-2.152 0.796-2.391-0.018-0.212-0.386-0.071-0.456-0.229zM5.319 5.692c-0.306 0.032-0.325-0.801-0.115-0.91 0.492 0.009 0.373 0.751 0.115 0.91zM5.091 7.174c0.115-0.468 0.051-0.456 0.112-1.024 0.342 0.019 0.39 1.155-0.112 1.024zM5.433 4.099c-0.394 0.081-0.409-0.399-0.229-0.57 0.394-0.079 0.408 0.401 0.229 0.57zM5.433 2.391c0.050 0.239-0.078 0.301-0.114 0.456-0.264 0.034-0.126-0.329-0.343-0.344 0.037-0.153 0.287-0.093 0.457-0.112zM5.091 7.972c0.222-0.046 0.165 0.517-0.114 0.34 0.060-0.093 0.119-0.186 0.114-0.341zM4.065 2.391c0.043 0.389-0.657 0.48-0.568 0h0.568zM2.584 2.505c-0.051 0.329-0.489 0.268-0.568 0.568-0.321-0.255 0.126-0.702 0.568-0.568zM1.902 3.643c0.339-0.308 0.676-0.615 1.026-0.91-0.031-0.184 0.107-0.196 0.114-0.342h0.344c0.153 0.571-0.392 0.444-0.458 0.796 0.031 0.183-0.108 0.196-0.112 0.341 0.030 0.502 0.181 0.882 0.112 1.482-0.405 0.012-0.414 0.42-0.91 0.341 0.033-0.642-0.203-1.011-0.115-1.707zM2.016 8.541v-2.391c0.292-0.277 0.594-0.546 0.91-0.798 0.442 0.733 0.268 2.088 0.682 2.845-0.413 0.236-1.125 0.166-1.593 0.344zM29.347 25.166c-0.163 1.431-0.237 2.952-0.568 4.213-4.335 0.184-9.030 0.008-13.324 0.23-0.299 0.067-0.409-0.047-0.344-0.343-0.38 0-0.387 0.37-0.796 0.343 0.302-0.504 0.657-1.347 0.226-1.936-1.195 0.020-1.195 1.231-1.707 1.936-1.029-0.079-1.705 0.191-2.734 0.113 0.27-1.057 1.125-1.531 1.366-2.617-0.592-0.825-1.483 0.207-1.821 0.682-0.306 0.72-0.835 1.215-1.14 1.935h-1.477c0.357-0.703 0.733-1.389 1.138-2.049 0.257-0.768 0.937-1.111 1.024-2.050-0.236-0.42-0.63-0.044-1.024 0-0.184 0.273-0.408 0.502-0.57 0.796-0.348 0.564-0.751 1.071-1.026 1.71-0.271 0.312-0.502 0.005-0.795 0.34-0.583 0.407-0.871 1.104-1.482 1.48-0.261-0.090 0.059-0.534 0.229-0.57 0.067-0.271-0.144-0.825 0.112-0.91 0.095-0.549 0.318-0.97 0.568-1.365 0.178-1.113 0.781-1.798 1.026-2.847-0.838 0.148-1.011 0.964-1.482 1.48-0.318 0.667-0.813 1.158-1.024 1.936-0.261-0.197-0.042-0.87-0.114-1.254 0.183-0.879 0.447-1.678 0.57-2.619 0.2-0.33 0.26-0.802 0.342-1.251 0.252-0.314 0.069-0.915-0.115-1.141-0.339 0.041-0.561 0.2-0.682 0.456-0.288-0.048-0.289 0.759-0.456 0.456-0.067-3.88-0.676-7.218-0.684-11.157 0.039-0.496-0.275-0.636-0.342-1.027 2.443 0.042 4.681 0.136 7.174 0.344-0.133 0.209-0.299 0.386-0.456 0.568-0.216 0.105-0.339 0.259-0.567 0.456-0.906 2.479-1.462 5.976-0.91 9.225 0.343 0.87 0.883 1.543 1.479 2.161 1.36 0.727 2.452 1.723 3.759 2.506 2.551 0.541 5.76 0.553 8.311 0 0.354-0.18 0.726-0.339 1.027-0.57 2.046-1.863 4.129-3.688 4.441-7.288v-2.050c-0.296-2.397-1.032-4.357-2.62-5.466 0.497-0.33 1.648 0.065 2.505 0.114 0.334 0.020 0.67 0.021 1.026 0 0.612-0.036 1.392-0.082 2.164 0 0.216 0.28 0.169 0.816 0.342 1.14-0.093 2.526-0.288 4.95-0.228 7.63 0.154 0.681 0.191 1.479 0.343 2.161-0.137 1.459-0.355 2.835-0.685 4.098zM29.915 8.427c-0.958-0.18-1.848-0.426-2.845-0.568 0.108-0.5 1.198-0.015 1.48-0.342 0.577-0.335 0.442-1.38 0.456-2.265 0.048-0.522 0.171-0.966 0.114-1.594-0.601-1.426-2.674-0.631-4.329-0.682-0.337 1.077-0.705 2.7-0.456 3.985 0.253 0.735 1.536 0.438 2.278 0.684-0.21 0.498-1.032 0.085-1.48 0.114-0.444-0.125-1.060-0.078-1.479-0.226-3.427 0.117-6.426 0.006-9.793 0.226 0.175-1.872 0.095-3.697-0.114-5.467h4.668c-0.516 0.546-1.368 0.76-1.935 1.252-0.66 0.366-1.291 0.757-1.708 1.366 0.373 0.201 0.802-0.367 1.138-0.568 0.532-0.111 0.718-0.571 1.252-0.682 0.634-0.657 1.644-0.937 2.505-1.368 0.567-0.033 1.045 0.019 1.48 0.115 1.924 0.010 3.684 0.189 5.694 0.114 0.921 0.217 2.175 0.103 2.961 0.456 0.16 0.447 0.346 0.868 0.457 1.366 0.012 1.479-0.224 2.724-0.345 4.084zM21.148 2.847c0.165-0.071-0.014-0.138 0 0v0zM21.148 2.847c-0.793 0.231-1.528 0.522-2.050 1.023 0.726-0.297 1.588-0.459 2.050-1.023zM22.741 3.757c0.166-0.071-0.011-0.136 0 0v0zM20.122 5.124c1.090-0.237 1.771-0.886 2.619-1.366-0.655 0.029-0.888 0.48-1.48 0.568-0.323 0.325-0.9 0.39-1.138 0.798zM19.097 3.871c-0.166 0.071 0.011 0.138 0 0v0zM18.073 4.782c0.165-0.069-0.012-0.138 0 0v0zM17.96 4.896c0.095 0.021 0.105-0.045 0.113-0.114-0.096-0.021-0.108 0.045-0.113 0.114zM17.845 5.010c0.096 0.021 0.108-0.045 0.116-0.114-0.101-0.019-0.108 0.043-0.116 0.114zM16.594 5.922c0.519-0.201 0.919-0.522 1.251-0.91-0.522 0.2-0.922 0.52-1.251 0.91zM20.008 7.402c0.799-0.074 1.123-0.624 1.822-0.796 0.426-0.447 1.176-0.571 1.48-1.14-0.84 0.035-1.149 0.598-1.824 0.796-0.426 0.446-1.126 0.619-1.479 1.14zM16.594 5.922c-0.476-0.111-0.024 0.341 0 0v0zM15.794 6.49c0.031 0.032 0.172-0.056 0.114-0.115-0.031-0.030-0.174 0.057-0.114 0.115zM20.008 7.402c-0.165 0.071 0.011 0.136 0 0v0zM18.298 10.134c-0.334-0.347-1.014-0.35-1.479-0.568-1.045-0.057-1.834 0.139-2.619 0.344-0.456 0.226-0.91 0.456-1.365 0.681-0.399 0.249-0.666 0.625-1.14 0.798-0.307 0.338-0.528 0.765-1.026 0.91-0.006 0.335-0.259 0.421-0.456 0.568-0.133 0.172-0.141 0.468-0.341 0.571-0.011 0.18 0.054 0.435-0.114 0.454 0.162 2.268 0.437 4.422 1.024 6.265 0.431 0.934 1.462 1.269 2.163 1.935 0.883 0.445 1.992 0.666 3.189 0.796 0.416-0.078 0.829-0.157 1.366-0.114 1.813-0.314 3.147-1.104 4.215-2.161 0.15-0.422 0.378-0.762 0.682-1.026-0.381-1.006 0.439-1.647 0.682-2.385 0.003-2.016-0.302-3.72-0.91-5.122-0.384-0.868-1.38-1.126-2.049-1.708-0.088-0.027-0.225-0.005-0.227-0.116-0.404-0.204-1.099-0.358-1.597-0.123zM13.176 16.624c-0.169-0.095-0.164-0.366-0.228-0.568 0.384-0.117 0.177 0.355 0.228 0.568zM13.29 17.081c0.062-0.175 0.118-0.009 0.114 0.113-0.060 0.177-0.118 0.008-0.114-0.113zM13.974 14.005c0.023-0.129 0.113-0.063 0.113 0-0.021 0.13-0.113 0.065-0.113 0zM16.479 10.818c-0.305 0.387 0.061 0.864 0.116 1.254-0.457-0.059-0.861-1.33-0.116-1.254zM17.047 16.739c-0.060-0.057 0.082-0.145 0.114-0.114 0.060 0.057-0.081 0.145-0.114 0.114zM18.185 21.065c0.051-0.163 0.099 0.012 0.228 0-0.027 0.145-0.225 0.116-0.228 0zM21.487 17.194c-0.349-0.085-0.218 0.312-0.568 0.228 0.104-0.238 0.177-0.507 0.343-0.682 0.201 0.029 0.258 0.195 0.225 0.454zM19.781 11.5c0.317 0.178 0.661 0.325 0.909 0.571 0.128 0.329 0.364 0.544 0.57 0.793 0.087 1.167 0.268 2.238 0.227 3.531-0.386 0.148-0.657 0.407-1.024 0.571-1.17-0.009-2.037-0.318-2.845-0.684-0.256-0.389-0.532-0.757-0.798-1.138v-1.593c0.255-0.277 0.479-0.586 0.684-0.91 0.342-0.191 0.762-0.302 0.681-0.91-0.057-0.093-0.117-0.186-0.113-0.344 0.237 0.068 0.367 0.239 0.568 0.344 0.485 0.025 0.615-0.3 1.141-0.231z"></path>
</symbol>
<symbol id="icon-icon-interior" viewBox="0 0 21 32">
<title>icon-interior</title>
<path d="M7.782 19.462c-0.147 0.495-0.126 1.123 0.014 1.866 0.253 1.351 0.865 3.097 1.209 4.958h2.595c0.357-1.867 0.999-3.615 1.267-4.965 0.147-0.741 0.169-1.364 0.021-1.855-0.141-0.461-0.456-0.83-1.036-1.181h-3.075c-0.551 0.348-0.858 0.713-0.995 1.176z"></path>
<path d="M13.848 29.714h-7.075c-0.663 0-1.179 0.5-1.179 1.143v1.143h9.433v-1.143c0-0.642-0.516-1.143-1.179-1.143z"></path>
<path d="M17.506 1.143h-6.015c0-0.638-0.52-1.143-1.179-1.143-0.658 0-1.179 0.505-1.179 1.143h-6.018l-3.114 13.083c0.407-0.236 0.815-0.509 1.349-0.509 0.697 0 1.15 0.419 1.499 0.705s0.596 0.435 0.742 0.435c0.15 0.001 0.394-0.147 0.744-0.429s0.802-0.696 1.495-0.696c0.692 0 1.147 0.413 1.497 0.694 0.351 0.281 0.595 0.431 0.744 0.431 0.075 0 0.173-0.037 0.297-0.11s0.272-0.181 0.447-0.321c0.263-0.211 0.584-0.496 1.020-0.624 0.146-0.044 0.304-0.070 0.477-0.070 0.691 0 1.148 0.413 1.497 0.694s0.594 0.431 0.744 0.431c0.147-0.001 0.393-0.152 0.741-0.436 0.351-0.284 0.806-0.701 1.5-0.701s1.148 0.419 1.497 0.703c0.175 0.142 0.324 0.251 0.447 0.324s0.221 0.11 0.295 0.11c0.148 0 0.391-0.15 0.739-0.438 0.349-0.287 0.803-0.71 1.502-0.71 0.535 0 0.943 0.273 1.349 0.511l-3.117-13.078z"></path>
<path d="M12.061 27.428h-3.519c-0.337 0-0.59 0.246-0.59 0.572s0.253 0.571 0.59 0.571h3.538c0.336 0 0.59-0.246 0.59-0.571 0-0.326-0.254-0.572-0.59-0.572h-0.018z"></path>
<path d="M10.31 14.875c-0.075 0-0.173 0.038-0.297 0.109-0.081 0.048-0.19 0.134-0.292 0.21v1.913h1.179v-1.913c-0.259-0.194-0.466-0.319-0.589-0.319z"></path>
</symbol>
<symbol id="icon-icon-left-arrow" viewBox="0 0 62 32">
<title>icon-left-arrow</title>
<path d="M61.531 13.539h-52.106l10.059-10.059-3.48-3.48-16.004 16.004 16.004 15.996 3.48-3.48-10.057-10.058h52.104z"></path>
</symbol>
<symbol id="icon-icon-mail" viewBox="0 0 32 32">
<title>icon-mail</title>
<path d="M28 5h-24c-2.209 0-4 1.792-4 4v13c0 2.209 1.791 4 4 4h24c2.209 0 4-1.791 4-4v-13c0-2.208-1.791-4-4-4zM2 10.25l6.999 5.25-6.999 5.25v-10.5zM30 22c0 1.104-0.898 2-2 2h-24c-1.103 0-2-0.896-2-2l7.832-5.875 4.368 3.277c0.533 0.397 1.166 0.6 1.8 0.6 0.633 0 1.266-0.201 1.799-0.6l4.369-3.277 7.832 5.875zM30 20.75l-7-5.25 7-5.25v10.5zM17.199 18.602c-0.35 0.263-0.763 0.4-1.199 0.4s-0.851-0.139-1.2-0.4l-12.8-9.602c0-1.103 0.897-2 2-2h24c1.102 0 2 0.897 2 2l-12.801 9.602z"></path>
</symbol>
<symbol id="icon-icon-map-pin" viewBox="0 0 21 32">
<title>icon-map-pin</title>
<path fill="#fff" style="fill: var(--color1, #fff)" d="M17.884 2.929c-4.093-3.906-10.721-3.906-14.815 0-4.092 3.904-4.092 10.237 0 14.14 0 0 7.402 6.931 7.402 14.93 0-8 7.41-14.93 7.41-14.93 4.094-3.903 4.094-10.236 0.002-14.14z"></path>
<path fill="#6bc6b3" style="fill: var(--color5, #6bc6b3)" d="M14.932 14.451c-0.202-1.040 0.041-2.205 0.009-3.265-0.037-1.192-0.226-2.376-0.211-3.57 0.012-0.966 0.173-1.96-0.16-2.886 0.021-0.105 0.043-0.21 0.062-0.316 0.086-0.464-1.453-0.219-1.695 0.206-0.152 0.125-0.23 0.273-0.166 0.425 0.016 0.038 0.031 0.077 0.045 0.116-0.291 1.424-0.697 2.802-1.164 4.182-0.179 0.528-0.395 1.044-0.577 1.57-0.258-0.49-0.52-0.975-0.73-1.501-0.61-1.525-1.161-3.067-1.905-4.535 0.084-0.679-1.423-0.608-1.721 0.014-0.359 0.753-0.313 1.512-0.195 2.317 0.133 0.907 0.157 1.799 0.168 2.716 0.021 1.767 0.159 3.53 0.185 5.296-0.157 0.175-0.205 0.391-0.040 0.611 0.072 0.096 0.16 0.17 0.254 0.244 0.402 0.322 1.555 0.048 1.553-0.565-0.006-1.832-0.139-3.661-0.187-5.492-0.005-0.179-0.008-0.358-0.011-0.538 0.025 0.064 0.050 0.129 0.076 0.193 0.284 0.713 0.582 1.405 0.971 2.068 0.385 0.656 0.579 1.362 0.801 2.078-0.084 0.096-0.134 0.205-0.104 0.315-0.017 0.080 0.031 0.13 0.112 0.16 0.284 0.243 0.818 0.122 1.115-0.003 0.127-0.053 0.249-0.116 0.367-0.188 0.153-0.094 0.392-0.302 0.324-0.515-0.013-0.041-0.026-0.083-0.038-0.124 0.209-0.564 0.315-1.151 0.429-1.746 0.121-0.635 0.348-1.236 0.575-1.837 0.023 0.275 0.047 0.55 0.070 0.824 0.090 1.135 0.015 2.254 0.004 3.389-0.004 0.377 0.024 0.726 0.097 1.094 0.030 0.152 0.163 0.803 0.125 0.839-0.271 0.251-0.192 0.558 0.171 0.638 0.406 0.089 0.924-0.047 1.231-0.33 0.532-0.491 0.28-1.263 0.16-1.885z"></path>
</symbol>
<symbol id="icon-icon-menu-close" viewBox="0 0 32 32">
<title>icon-menu-close</title>
<path d="M32.002 2.206l-2.206-2.206-13.796 13.794-13.794-13.794-2.206 2.206 13.794 13.794-13.794 13.794 2.206 2.206 13.794-13.794 13.796 13.794 2.206-2.206-13.794-13.794z"></path>
</symbol>
<symbol id="icon-icon-menu-open" viewBox="0 0 46 32">
<title>icon-menu-open</title>
<path d="M0 0h45.618v4.571h-45.618v-4.571z"></path>
<path d="M0 13.714h45.618v4.571h-45.618v-4.571z"></path>
<path d="M0 27.429h45.618v4.571h-45.618v-4.571z"></path>
</symbol>
<symbol id="icon-icon-phone" viewBox="0 0 33 32">
<title>icon-phone</title>
<path d="M22.779 32c-0.488 0-0.978 0-1.466 0-6.449-0.763-11.174-3.757-14.611-7.591-3.449-3.845-6.173-8.793-6.702-15.444 0-0.596 0-1.191 0-1.786 0.12-1.211 0.715-2.038 1.403-2.743 0.855-0.876 2.144-2.002 3.317-2.042 0.867-0.029 2.341 0.593 2.935 1.402 0.51 0.697 0.782 2.091 1.019 3.127 0.243 1.048 0.789 2.564 0.638 3.573-0.231 1.573-2.32 2.24-2.934 3.382 2.040 4.893 5.377 8.49 9.826 10.974 1.114-0.611 2.098-2.451 3.639-2.488 0.563-0.016 1.278 0.275 1.849 0.447 0.627 0.188 1.172 0.429 1.724 0.637 0.927 0.35 2.574 0.817 3.127 1.595 0.569 0.802 0.896 2.115 0.764 2.934-0.255 1.623-2.929 3.423-4.529 4.023z"></path>
<path d="M16.477 2.009c7.823 0 14.165 6.341 14.165 14.165h2.011c0-8.932-7.241-16.174-16.176-16.174v2.009z"></path>
<path d="M16.477 12.266v2.041c1.032 0 1.869 0.836 1.869 1.867h2.042c-0.001-2.159-1.75-3.908-3.911-3.908z"></path>
<path d="M16.477 8.214c4.399 0 7.964 3.564 7.964 7.962h2.088c0-5.55-4.5-10.049-10.053-10.049v2.087z"></path>
</symbol>
<symbol id="icon-icon-play" viewBox="0 0 42 32">
<title>icon-play</title>
<path fill="#63d1bb" style="fill: var(--color3, #63d1bb)" d="M40.35 7.553c0 0-0.383-2.917-1.575-4.194-1.512-1.682-3.194-1.692-3.971-1.788-5.546-0.426-13.86-0.426-13.86-0.426h-0.021c0 0-8.314 0-13.86 0.426-0.777 0.096-2.459 0.107-3.97 1.788-1.182 1.288-1.576 4.194-1.576 4.194s-0.373 3.417-0.373 6.834v3.204c0 3.417 0.394 6.834 0.394 6.834s0.383 2.917 1.575 4.194c1.512 1.682 3.481 1.628 4.364 1.81 3.172 0.319 13.466 0.425 13.466 0.425s8.325-0.010 13.871-0.436c0.777-0.096 2.459-0.107 3.97-1.789 1.182-1.277 1.576-4.194 1.576-4.194s0.394-3.417 0.394-6.834v-3.204c-0.010-3.428-0.404-6.845-0.404-6.845z"></path>
<path fill="#fff" style="fill: var(--color1, #fff)" d="M20.939 31.999h-0.007c-0.422-0.005-10.382-0.111-13.569-0.432l-0.058-0.006-0.057-0.012c-0.113-0.023-0.278-0.045-0.469-0.070-1.042-0.137-2.979-0.39-4.511-2.089-1.396-1.505-1.822-4.483-1.866-4.818l-0.002-0.018c-0.016-0.142-0.402-3.522-0.402-6.965v-3.204c0-3.44 0.364-6.816 0.38-6.958l0.004-0.030c0.045-0.334 0.481-3.299 1.862-4.81 1.663-1.847 3.55-2.039 4.458-2.131 0.080-0.008 0.154-0.015 0.22-0.024l0.052-0.005c5.526-0.424 13.864-0.429 13.948-0.429h0.021c0.084 0 8.422 0.005 13.948 0.429l0.052 0.005c0.066 0.009 0.14 0.016 0.22 0.024 0.907 0.092 2.793 0.284 4.455 2.127 1.396 1.505 1.822 4.483 1.866 4.818l0.002 0.018c0.016 0.142 0.402 3.52 0.412 6.972v3.208c0 3.443-0.385 6.823-0.402 6.965l-0.003 0.022c-0.045 0.335-0.481 3.31-1.864 4.812-1.662 1.846-3.549 2.038-4.456 2.13-0.080 0.008-0.154 0.015-0.221 0.024l-0.052 0.005c-5.525 0.424-13.873 0.44-13.956 0.44l-0.006-0zM7.645 29.295c3.112 0.303 12.991 0.412 13.304 0.415 0.273-0 8.38-0.020 13.753-0.431 0.074-0.009 0.154-0.017 0.241-0.026 0.764-0.077 1.918-0.195 2.991-1.388l0.011-0.012c0.76-0.822 1.187-2.883 1.28-3.559 0.025-0.214 0.385-3.478 0.385-6.692v-3.204c-0.010-3.229-0.373-6.504-0.396-6.704-0.133-0.991-0.597-2.825-1.276-3.554l-0.015-0.016c-1.072-1.194-2.227-1.311-2.991-1.388-0.087-0.009-0.167-0.017-0.241-0.026-5.438-0.415-13.665-0.421-13.747-0.421h-0.021c-0.082 0-8.31 0.005-13.747 0.421-0.074 0.009-0.154 0.017-0.241 0.026-0.764 0.078-1.917 0.195-2.991 1.388l-0.008 0.009c-0.761 0.829-1.188 2.882-1.283 3.559-0.026 0.246-0.364 3.495-0.364 6.696v3.204c0 3.225 0.362 6.491 0.385 6.693 0.133 0.991 0.596 2.825 1.276 3.554l0.015 0.016c0.966 1.075 2.207 1.238 3.113 1.356 0.2 0.025 0.391 0.050 0.567 0.084z"></path>
<path fill="#fff" style="fill: var(--color1, #fff)" d="M15.995 8.564v14.861l12.38-7.43z"></path>
</symbol>
<symbol id="icon-icon-right-arrow" viewBox="0 0 62 32">
<title>icon-right-arrow</title>
<path d="M0 13.539h52.106l-10.060-10.059 3.481-3.48 16.004 16.004-16.004 15.996-3.481-3.48 10.058-10.058h-52.104z"></path>
</symbol>
<symbol id="icon-icon-search" viewBox="0 0 32 32">
<title>icon-search</title>
<path d="M31.4 28.6l-6.209-6.209c1.755-2.344 2.809-5.238 2.809-8.393 0-7.733-6.267-13.998-14-13.998s-14 6.265-14 13.998 6.265 14 13.998 14c3.153 0 6.047-1.055 8.387-2.811l6.213 6.211c0.369 0.367 0.76 0.6 1.402 0.6 1.104 0 2-0.895 2-2 0-0.436-0.111-0.907-0.6-1.398zM3.998 13.998c0-5.524 4.476-10 10-10s10 4.476 10 10-4.476 10-10 10-10-4.475-10-10z"></path>
</symbol>
<symbol id="icon-icon-tick" viewBox="0 0 46 32">
<title>icon-tick</title>
<path d="M45.964 1.99l-1.99-1.99-28.021 28.021-13.964-13.965-1.99 1.99 15.955 15.955 1.988-1.99z"></path>
</symbol>
<symbol id="icon-icon-toy" viewBox="0 0 32 32">
<title>icon-toy</title>
<path d="M0 23.445l14.727 8.552v-12.531l-14.727-8.556v12.534zM27.559 6.675v1.317c0 0.975-1.856 1.766-4.149 1.766-2.29 0-4.147-0.791-4.147-1.766v-2.179h0.013c0.14 0.92 1.934 1.649 4.134 1.649 2.293 0 4.148-0.791 4.148-1.763 0-0.976-1.855-1.765-4.148-1.765-0.182 0-0.362 0.005-0.538 0.016l-2.67-1.55v1.656c0 0.975-1.854 1.766-4.145 1.766-1.44 0-2.708-0.313-3.453-0.787-0.105-0.109-0.236-0.215-0.393-0.315-0.195-0.205-0.303-0.428-0.303-0.663v-1.603l-2.58 1.499c-0.186-0.009-0.374-0.018-0.566-0.018-2.29 0-4.147 0.788-4.147 1.765 0 0.972 1.857 1.763 4.147 1.763 2.2 0 3.997-0.729 4.136-1.649h0.012v2.179c0 0.975-1.854 1.766-4.147 1.766-2.29 0-4.147-0.791-4.147-1.766v-1.299l-3.195 1.853 14.777 8.58 14.68-8.524-3.318-1.927zM20.236 12.132c0 0.975-1.857 1.764-4.147 1.764-2.291 0-4.148-0.789-4.148-1.764v-2.179h0.013c0.14 0.921 1.934 1.651 4.136 1.651s3.995-0.73 4.136-1.651h0.011v2.179h0.001zM17.474 19.578v12.422l14.729-8.555v-12.422l-14.729 8.555zM16.057 3.527c2.291 0 4.145-0.789 4.145-1.764 0-0.974-1.854-1.764-4.145-1.764s-4.148 0.79-4.148 1.764c-0.001 0.975 1.857 1.764 4.148 1.764z"></path>
</symbol>
<symbol id="icon-icon-twitter" viewBox="0 0 37 32">
<title>icon-twitter</title>
<path d="M37.212 6.48c-0.36-0.581-1.442-0.439-2.232-0.589h-1.764c0.225-0.56 0.544-1.025 0.825-1.528 0.089-0.695 0.403-1.165 0.354-1.999 0.205-0.265 0.279-0.662 0.47-0.941 0.165-0.228 0.384-0.757 0.117-1.058-0.081-0.351-0.468-0.395-0.941-0.352-0.14 0.057-0.268 0.125-0.352 0.235-0.711 0.687-1.234 1.609-2.001 2.234-0.014 0.013-0.098 0-0.117 0-0.138 0.008-0.052 0.073-0.119 0.117-0.232 0.155-0.408 0.241-0.585 0.354-0.451 0.279-0.868 0.706-1.414 0.823-0.839-0.335-1.834-0.517-2.939-0.587-1.836 0.162-3.654 0.341-4.82 1.176-1.445 0.555-2.343 1.653-3.41 2.586-0.078 0.508-0.543 0.631-0.587 1.176-0.008 0.071-0.019 0.14-0.116 0.117 0.068 0.382-0.081 0.547-0.117 0.823-0.002 0.211 0.316 0.684 0 0.825-1.304-0.19-2.356-1-3.41-1.53-1.139-0.571-2.329-0.958-3.291-1.763-1.136-0.511-1.999-1.295-2.821-2.117-0.33-0.495-0.86-0.787-1.058-1.412-0.601-0.26-0.278-1.447-1.176-1.411-0.5-0.068-0.547 0.316-0.704 0.587-0.111 0.36-0.573 0.368-0.589 0.823-0.006 0.073-0.017 0.14-0.117 0.119-0.27 1.728-0.836 3.161-0.823 5.173 0.205 0.658 0.555 1.171 0.941 1.647-0.663 0.081-1.136 0.352-1.412 0.823-0.095 1.703 0.6 2.613 1.177 3.645 0.213 0.609 0.558 1.087 0.941 1.528 0.027 0.363 0.327 0.457 0.47 0.706 0.030 0.167 0.195 0.198 0.236 0.354-0.063 0.167 0.459 0.286 0.116 0.351-0.655 0.208-1.612 0.111-1.998 0.589-0.173 0.443-0.173 1.322 0 1.763 0.054 0.376 0.447 0.416 0.47 0.823 0.792 0.662 1.717 1.185 2.588 1.764 0.911 0.263 1.921 0.43 2.939 0.587-0.162 0.544-0.536 0.874-0.941 1.176-1.238 0.605-2.934 0.752-4.351 1.174-0.881 0.060-1.517 0.365-2.469 0.354-0.528 0.201-1.355 0.119-1.764 0.354-0.194 0.108-0.162 0.152-0.352 0.351-0.213 0.654 0.176 1.174 0.704 1.412-0.008 0.401 0.347 0.438 0.589 0.589 0.141 0.29 0.403 0.46 0.706 0.587 0.863 0.743 2.012 1.204 3.058 1.764 1.317 0.29 2.615 0.597 3.998 0.823 1.422 0.184 3.016 0.197 4.468 0.352h1.528c0.811 0.209 1.952 0.086 2.94 0.117 0.151-0.162 0.511-0.116 0.823-0.117 0.828-0.427 1.898-0.611 2.588-1.174 0.911-0.382 1.569-1.019 2.47-1.412 1.374-1.214 3.073-2.101 3.997-3.76 0.325-0.3 0.557-0.695 0.706-1.174 0.42-0.248 0.611-0.72 0.941-1.058 0.641-0.651 1.12-1.466 1.645-2.221 0.506-0.787 0.914-1.672 1.412-2.469-0.016-0.643 0.486-0.768 0.47-1.412 0.306-0.359 0.281-1.050 0.589-1.396-0.052-0.405 0.046-0.658 0.117-0.942 0.075-2.033-0.075-3.843-0.471-5.406 0.933-0.246 1.874-0.479 2.588-0.941 0.825-0.327 1.576-0.957 1.282-2.033zM31.805 12.947c-0.243 1.363-0.976 2.237-1.647 3.175 0.094 0.601-0.165 0.854-0.116 1.411-0.251 0.495-0.455 1.035-0.589 1.645-0.322 0.424-0.527 0.962-0.823 1.412-0.581 0.869-1.233 1.668-1.882 2.47-0.6 0.889-1.447 1.531-2.117 2.35-0.666 0.782-1.495 1.404-2.232 2.117-0.752 0.27-1.412 0.628-1.999 1.058-0.368 0.143-0.735 0.286-1.058 0.47-0.281 0.232-0.792 0.23-1.060 0.46-1.723 0.233-3.649 0.27-5.641 0.235-1.636-0.167-3.356-0.252-4.822-0.589-1.463-0.3-2.397-1.13-3.645-1.645 0.243-0.384 1.006-0.244 1.528-0.352 0.049-0.263 0.625-0.005 0.704-0.236 0.408 0.095 0.452-0.173 0.825-0.111 0.893-0.319 1.952-0.479 2.705-0.941 0.447-0.219 0.644-0.689 1.058-0.941 0.052-0.3 0.165-0.541 0.352-0.704 0.075-0.436 0.319-0.7 0.235-1.293 0.176-0.333 0.474-0.544 0.47-1.058-0.117-0.233-0.203-0.501-0.47-0.589-0.041-0.311-0.598-0.106-0.704-0.352-0.405 0.051-0.66-0.046-0.941-0.119-0.244-0.068-0.773 0.146-0.823-0.116-1.336-0.037-2.063-0.682-2.94-1.174 0.684-0.416 1.637-0.56 2.115-1.177 0.819-0.121 1.679-0.205 1.764-1.057 0-1.138-1.223-1.049-2.115-1.293-1.226-1.047-1.894-2.653-2.823-3.998 0.378-0.249 0.895-0.359 1.176-0.704 0.72 0.092 0.857-0.398 1.058-0.825 0.030-0.774-0.528-0.96-0.941-1.293-0.411-0.333-0.754-0.733-1.058-1.174-0.005-1.298-0.033-2.621 0.117-3.764 0.1-0.022 0.111 0.046 0.117 0.117 0.36 0.7 0.887 1.23 1.293 1.882 0.844 0.566 1.468 1.353 2.469 1.764 0.717 0.655 1.758 0.985 2.47 1.647 0.954 0.417 1.837 0.904 2.704 1.411 1.061 0.308 1.676 1.068 3.175 0.941 0.314-0.155 0.625-0.316 0.941-0.471 0.409-0.724-0.094-1.712 0.233-2.586 0.405-1.046 1.265-1.636 1.999-2.35 0.46-0.246 0.881-0.532 1.293-0.823 0.551-0.155 1.071-0.343 1.53-0.587 0.597-0.030 1.131-0.122 1.645-0.235h1.999c0.387 0.082 0.754 0.189 1.174 0.235 0.332 0.217 0.603 0.497 1.057 0.589 1.252 1.1 2.017 2.691 2.236 4.822-0.194 0.768 0.084 1.385 0.002 2.35zM32.275 4.011c-0.205 0.539-0.365 1.122-0.941 1.293-0.027-0.167-0.194-0.198-0.233-0.352-0.019-0.332 0.332-0.295 0.47-0.47 0.257-0.135 0.389-0.394 0.704-0.471-0.011-0.143 0.171-0.073 0 0zM23.573 8.831c0.259 0.214 0.451 0.492 0.823 0.589 0.16 0.351 0.498 0.519 0.942 0.587 0.075-0.238 0.549-0.078 0.587-0.352 0.276-0.037 0.263-0.363 0.47-0.471-0.029-0.873-0.205-1.596-0.587-2.115-1.203-0.671-2.659 0.062-2.236 1.763z"></path>
</symbol>
<symbol id="icon-icon-video" viewBox="0 0 32 32">
<title>icon-video</title>
<path d="M26 15l6-4v16l-6-4v-8zM24 15v8c0 2.209-1.791 4-4 4h-16c-2.209 0-4-1.791-4-4v-8c0-2.209 1.791-4 4-4h10c0-1.105 0.895-2 2-2v-2h-11c-0.553 0-1-0.447-1-1s0.447-1 1-1h12c0.553 0 1 0.447 1 1v3c1.105 0 2 0.895 2 2 2.209 0 4 1.791 4 4zM12 15h-8v8h8v-8zM20 16c0-0.553-0.447-1-1-1h-4c-0.553 0-1 0.447-1 1s0.447 1 1 1h4c0.553 0 1-0.447 1-1z"></path>
</symbol>
<symbol id="icon-logo-footer" viewBox="0 0 95 32">
<title>logo-footer</title>
<path d="M17.98 20.197c-0.078-2.521-0.479-5.024-0.446-7.55 0.026-2.043 0.366-4.144-0.338-6.103 0.044-0.223 0.090-0.444 0.132-0.668 0.181-0.982-3.074-0.462-3.583 0.436-0.322 0.263-0.488 0.578-0.352 0.899 0.035 0.081 0.065 0.163 0.096 0.245-0.616 3.011-1.475 5.925-2.463 8.844-0.378 1.116-0.834 2.207-1.22 3.32-0.547-1.037-1.098-2.062-1.544-3.173-1.291-3.226-2.454-6.485-4.028-9.59 0.179-1.436-3.011-1.285-3.639 0.030-0.76 1.592-0.662 3.198-0.412 4.899 0.282 1.919 0.332 3.806 0.354 5.742 0.044 3.736 0.336 7.463 0.392 11.199-0.333 0.371-0.433 0.828-0.086 1.292 0.152 0.203 0.339 0.359 0.537 0.516 0.849 0.68 3.289 0.101 3.285-1.194-0.013-3.874-0.293-7.741-0.395-11.612-0.010-0.38-0.017-0.758-0.023-1.137 0.054 0.136 0.107 0.273 0.161 0.408 0.601 1.507 1.231 2.972 2.053 4.373 0.816 1.389 1.224 2.879 1.694 4.395-0.178 0.204-0.285 0.434-0.219 0.665-0.037 0.169 0.066 0.274 0.236 0.338 0.6 0.515 1.73 0.257 2.358-0.007 0.27-0.114 0.527-0.245 0.776-0.398 0.324-0.199 0.83-0.638 0.685-1.089-0.028-0.087-0.055-0.175-0.082-0.262 0.442-1.193 0.666-2.433 0.907-3.693 0.256-1.342 0.735-2.612 1.217-3.884 0.049 0.582 0.1 1.163 0.147 1.743 0.192 2.4 0.031 4.766 0.007 7.166-0.008 0.796 0.051 1.534 0.206 2.312 0.064 0.322 0.345 1.699 0.264 1.773-0.574 0.53-0.407 1.181 0.362 1.35 0.86 0.189 1.955-0.099 2.603-0.697 1.126-1.039 0.594-2.673 0.339-3.985-0.425-2.201 0.089-4.664 0.021-6.904z"></path>
<path d="M25.839 20.832c-0.070-1.868-0.719-3.629-0.727-5.518-0.010-2.166 0.17-4.316-0.146-6.47-0.1-0.681-3.811 0.094-3.681 0.987 0.29 1.983 0.185 3.974 0.149 5.97-0.035 1.921 0.44 3.663 0.686 5.548 0.253 1.93-0.079 3.906 0.14 5.838 0.102 0.904 0.705 2.577 0.084 3.364-0.395 0.5 1.38 0.321 1.459 0.306 0.723-0.133 1.685-0.368 2.165-0.975 0.614-0.778 0.184-2.28 0.050-3.154-0.297-1.935-0.107-3.942-0.179-5.895z"></path>
<path d="M41.182 17.713c-1.938-2.616-5.533-0.733-8.044-1.447-1.294-0.368-1.311-2.134-1.308-3.191 0.004-1.34-0.107-2.567-0.257-3.896-0.112-0.989-0.023-1.993 0.701-2.729 0.133-0.135 0.807-0.316 0.761-0.319 0.333-0.057 0.635-0.071 1.003-0.087 1.456-0.062 4.334 0.218 3.776 2.333-0.25 0.949 3.379 0.405 3.643-0.599 1.14-4.32-6.844-3.49-9.101-2.892-2.077 0.553-4.367 1.735-4.487 4.133-0.057 1.145 0.257 2.235 0.305 3.37 0.057 1.306-0.186 2.608 0.272 3.869 1.017 2.802 5.187 1.481 7.308 1.64 3.613 0.27 2.534 5.139 2.582 7.407 0.025 1.21 1.11 3.222 0.198 4.235-0.559 0.622-1.862 0.657-2.623 0.722-0.764 0.064-2.068 0.293-2.576-0.433-0.933-1.332 0.086-3.57-0.114-5.098-0.114-0.868-3.821-0.089-3.681 0.987 0.321 2.468-1.315 5.774 2.257 6.198 2.294 0.272 4.878-0.151 7.047-0.872 1.124-0.372 2.168-0.885 3.047-1.685 0.973-0.884 0.652-2.206 0.392-3.333-0.636-2.742 0.687-5.9-1.102-8.315z"></path>
<path d="M57.463 17.535c-0.115-3.549-0.648-7.059-0.663-10.615-0.008-1.852-3.724-1.226-3.718 0.322 0.014 3.39 0.467 6.734 0.641 10.114 0.004 0.070 0.008 0.138 0.012 0.208-1.831-0.017-3.664 0.166-5.5 0.231 0.189-4.353-0.574-8.67-0.409-13.020 0.021-0.547-3.64-0.085-3.681 0.986-0.161 4.205 0.552 8.377 0.426 12.584-0.060 2.007-0.23 4.007-0.243 6.015-0.007 1.029 0.161 2.051 0.309 3.066 0.137 0.939 0.455 2.19 0.171 3.118-0.223 0.725 3.346 0.273 3.629-0.652 0.511-1.671-0.209-3.795-0.381-5.486-0.164-1.621-0.037-3.288 0.078-4.931 1.907-0.122 3.814-0.279 5.713-0.011 0.085 1.295 0.184 2.588 0.303 3.884 0.099 1.087 0.168 2.173 0.184 3.265 0.014 0.957 0.133 2.345-0.208 3.252-0.726 1.933 2.96 1.775 3.498 0.342 0.661-1.757 0.472-3.945 0.36-5.792-0.139-2.296-0.448-4.58-0.522-6.879z"></path>
<path d="M73.373 21.739c-0.882-2.591-2.23-4.864-3.398-7.326 0.941-1.831 1.896-3.663 2.755-5.533 0.781-1.699 1.359-3.588 2.894-4.785 0.539-0.42 0.517-0.842-0.24-0.894-0.822-0.057-1.939 0.18-2.603 0.697-1.395 1.088-2.28 2.408-3.008 4.010-0.876 1.927-1.782 3.818-2.738 5.708-0.070 0.138-0.14 0.277-0.21 0.416-0.46 0.296-0.738 0.716-0.6 1.19-0.744 1.469-1.503 2.929-2.348 4.332-0.281-5.2-0.897-10.393-1.081-15.598-0.042-1.193-3.731-0.45-3.681 0.986 0.228 6.453 1.145 12.891 1.208 19.344-0.015 0.016-0.029 0.032-0.044 0.048-0.283 0.289-0.179 0.464 0.048 0.566 0.002 1.644-0.055 3.29-0.196 4.937-0.444 0.7 0.435 1.070 1.019 1.070 0.030 0 0.060 0 0.090 0 0.694 0 2.467-0.329 2.554-1.282 0.179-1.973 0.236-3.943 0.218-5.911 1.494-1.611 2.716-3.411 3.81-5.295 0.713 1.391 1.393 2.793 1.869 4.305 0.809 2.576 2.16 4.943 2.942 7.53 0.511 1.697 4.188 0.693 3.681-0.986-0.779-2.587-2.071-4.977-2.941-7.531z"></path>
<path d="M95.457 17.384c-0.197-0.782-1.289-0.798-2.134-0.724-0.011-0.315-0.019-0.631-0.034-0.945-0.117-2.5-0.155-5.054-0.368-7.547-0.196-2.31-1.489-3.136-3.732-3.051-2.27 0.086-4.913 0.495-7.030 1.318-2.45 0.953-3.813 2.758-4.284 5.338-0.516 2.832 0.225 5.844 0.35 8.688 0.145 3.292 0.062 6.591 0.058 9.884 0 0.538 3.68 0.029 3.681-0.986 0.003-2.608 0.039-5.216 0-7.824-0.012-0.769-0.048-1.533-0.096-2.296 1.286-0.557 3.464 0.011 4.745 0.133 1.040 0.098 2.038-0.156 3.048-0.274 0.020 2.172 0.101 4.355 0.19 6.525 0.046 1.113 0.448 3.317-0.333 4.239-0.411 0.485 1.391 0.322 1.461 0.31 0.745-0.137 1.655-0.377 2.164-0.978 0.892-1.052 0.428-3.561 0.377-4.817-0.073-1.795-0.096-3.593-0.132-5.391 1.084-0.138 2.271-0.802 2.069-1.601zM81.721 17.243c-0.097-1.17-0.204-2.34-0.285-3.517-0.15-2.19 0.11-5.246 2.152-6.576 0.545-0.356 1.574-0.296 2.212-0.412 0.911-0.165 1.838-0.365 2.658 0.179 1.137 0.754 0.857 3.436 0.856 4.575-0.003 1.884 0.195 3.759 0.291 5.641-0.519 0.052-1.044 0.084-1.581 0.071-2.148-0.050-4.27-0.388-6.303 0.039z"></path>
<path d="M22.653 6.295c0.49-0.047 0.982-0.212 1.388-0.492 0.080-0.068 0.161-0.135 0.241-0.203 0.489-0.315 0.913-0.777 0.684-1.279-0.474-1.038-0.397-2.096-0.391-3.208 0.006-0.9-0.905-1.171-1.673-1.103-0.679 0.059-2.037 0.546-2.044 1.428-0.006 0.933-0.067 1.894 0.102 2.811-0.044 0.106-0.070 0.225-0.098 0.334-0.052 0.199 0.015 0.395 0.133 0.554 0 0.042 0.002 0.084 0.002 0.126 0.005 0.105 0.009 0.21 0.014 0.315 0.069 0.218 0.203 0.384 0.403 0.498 0.365 0.219 0.825 0.258 1.238 0.219z"></path>
</symbol>
<symbol id="icon-logo-htmlacademy" viewBox="0 0 25 32">
<title>logo-htmlacademy</title>
<path d="M12.785 0.016l-0.139-0.016-12.646 1.325v23.149l12.647 7.526 12.646-7.524v-23.151l-12.508-1.309zM23.485 11.383l-10.817-6.377-0.001-0.098-0.082 0.047-0.083-0.053v0.102l-10.695 6.369v-8.421l10.84-1.138 10.839 1.138v8.429zM12.583 6.371l10.812 6.301-4.204 2.478-6.658-3.962-0.013 1.328 5.542 3.298-0.807 0.476-4.722-2.809-0.013 1.328 3.592 2.136-0.734 0.491-2.845-1.677-0.013 1.326 1.739 1.024-1.69 1.015-10.66-6.337 10.674-6.416zM1.807 14.2l10.711 6.375 0.015 0.98-7.455-4.438-0.014 1.329 7.49 4.501 0.017 1.010-7.484-4.449-0.012 1.327 7.572 4.55 7.644-4.573-0.010-4.86 3.206-1.911v9.407l-10.84 6.451-10.839-6.45v-9.248z"></path>
</symbol>
<symbol id="icon-logo-mobile" viewBox="0 0 78 32">
<title>logo-mobile</title>
<path d="M3.818 24.023c-0.013-3.171-0.239-6.337-0.325-9.508-0.007-0.311-0.014-0.622-0.018-0.933 0.045 0.111 0.089 0.222 0.133 0.332 0.493 1.235 1.007 2.432 1.68 3.581 0.668 1.136 1.004 2.357 1.389 3.598-0.145 0.166-0.234 0.356-0.179 0.544-0.030 0.137 0.054 0.224 0.194 0.279 0.49 0.42 1.416 0.211 1.93-0.007 0.221-0.093 0.433-0.202 0.636-0.324 0.265-0.165 0.68-0.522 0.56-0.892-0.022-0.072-0.045-0.143-0.066-0.215 0.362-0.976 0.546-1.99 0.743-3.022 0.21-1.102 0.602-2.142 0.997-3.183 0.039 0.476 0.080 0.954 0.118 1.425 0.159 1.961 0.026 3.9 0.007 5.866-0.007 0.651 0.042 1.256 0.168 1.895 0.054 0.262 0.283 1.389 0.215 1.443-0.471 0.435-0.334 0.969 0.298 1.106 0.704 0.154 1.601-0.080 2.131-0.571 0.922-0.853 0.485-2.189 0.278-3.263-0.352-1.802 0.070-3.819 0.016-5.653-0.063-2.064-0.393-4.113-0.364-6.183 0.021-1.672 0.3-3.392-0.277-4.997 0.036-0.183 0.073-0.364 0.107-0.548 0.149-0.803-2.515-0.378-2.934 0.358-0.265 0.215-0.4 0.474-0.286 0.736 0.028 0.065 0.052 0.133 0.077 0.2-0.504 2.465-1.207 4.853-2.016 7.243-0.31 0.914-0.683 1.806-1 2.72-0.448-0.852-0.901-1.691-1.264-2.6-1.055-2.641-2.009-5.31-3.297-7.852 0.146-1.177-2.464-1.053-2.979 0.018-0.623 1.303-0.541 2.618-0.337 4.013 0.232 1.572 0.272 3.116 0.292 4.701 0.036 3.057 0.274 6.11 0.321 9.171-0.272 0.302-0.355 0.677-0.071 1.058 0.124 0.166 0.28 0.293 0.44 0.42 0.691 0.577 2.69 0.103 2.685-0.958z"></path>
<path d="M20.438 7.242c-0.081-0.56-3.12 0.077-3.014 0.808 0.237 1.622 0.153 3.253 0.124 4.888-0.028 1.573 0.36 2.998 0.562 4.54 0.206 1.582-0.065 3.199 0.115 4.782 0.082 0.742 0.577 2.112 0.068 2.757-0.323 0.408 1.13 0.26 1.197 0.251 0.59-0.11 1.378-0.302 1.77-0.799 0.504-0.637 0.151-1.865 0.041-2.576-0.244-1.584-0.089-3.231-0.148-4.828-0.056-1.531-0.588-2.972-0.594-4.518-0.008-1.784 0.14-3.541-0.121-5.306z"></path>
<path d="M23.292 13.313c0.831 2.296 4.245 1.212 5.984 1.344 2.958 0.218 2.075 4.208 2.113 6.066 0.020 0.991 0.909 2.639 0.163 3.469-0.459 0.508-1.524 0.538-2.148 0.59-0.628 0.052-1.693 0.238-2.112-0.356-0.764-1.091 0.070-2.923-0.093-4.172-0.094-0.712-3.127-0.073-3.013 0.807 0.265 2.020-1.077 4.727 1.847 5.075 1.881 0.223 3.993-0.124 5.77-0.715 0.921-0.305 1.775-0.723 2.495-1.378 0.796-0.725 0.534-1.808 0.322-2.728-0.52-2.245 0.563-4.831-0.902-6.808-1.587-2.142-4.532-0.6-6.587-1.185-1.060-0.301-1.073-1.745-1.069-2.612 0.002-1.098-0.090-2.103-0.211-3.189-0.091-0.81-0.019-1.632 0.574-2.235 0.109-0.111 0.66-0.258 0.622-0.256 0.273-0.047 0.522-0.057 0.822-0.069 1.191-0.051 3.549 0.178 3.093 1.911-0.206 0.777 2.766 0.332 2.983-0.484 0.933-3.538-5.606-2.86-7.452-2.368-1.702 0.451-3.577 1.42-3.675 3.383-0.047 0.938 0.209 1.832 0.25 2.76 0.048 1.054-0.151 2.121 0.226 3.152z"></path>
<path d="M36.495 15.021c-0.048 1.643-0.19 3.282-0.201 4.926-0.005 0.841 0.133 1.682 0.254 2.512 0.111 0.768 0.372 1.794 0.139 2.554-0.181 0.59 2.74 0.221 2.972-0.536 0.418-1.367-0.172-3.107-0.311-4.492-0.134-1.325-0.029-2.69 0.066-4.037 1.56-0.1 3.122-0.227 4.676-0.010 0.069 1.062 0.15 2.12 0.248 3.179 0.080 0.891 0.138 1.779 0.15 2.675 0.014 0.781 0.11 1.917-0.169 2.661-0.595 1.581 2.425 1.452 2.864 0.274 0.541-1.44 0.386-3.231 0.295-4.744-0.119-1.881-0.369-3.75-0.429-5.632-0.093-2.907-0.53-5.781-0.543-8.686-0.006-1.517-3.049-1.004-3.043 0.263 0.011 2.777 0.381 5.514 0.522 8.283 0.005 0.056 0.007 0.111 0.009 0.164-1.498-0.015-2.997 0.136-4.502 0.189 0.156-3.564-0.47-7.098-0.332-10.661 0.018-0.449-2.981-0.070-3.014 0.807-0.131 3.454 0.453 6.87 0.35 10.313z"></path>
<path d="M49.355 19.927c-0.232 0.237-0.145 0.378 0.041 0.462 0.001 1.346-0.046 2.694-0.163 4.041-0.362 0.575 0.356 0.877 0.833 0.877 0.026 0 0.050 0 0.075 0 0.568 0 2.018-0.268 2.091-1.049 0.148-1.616 0.193-3.229 0.179-4.84 1.221-1.321 2.223-2.792 3.12-4.337 0.585 1.14 1.139 2.288 1.531 3.527 0.662 2.11 1.77 4.047 2.409 6.165 0.419 1.389 3.429 0.567 3.012-0.808-0.64-2.118-1.695-4.076-2.41-6.165-0.722-2.121-1.825-3.983-2.782-5.999 0.772-1.499 1.552-2.999 2.256-4.53 0.638-1.392 1.113-2.938 2.369-3.918 0.441-0.343 0.424-0.69-0.197-0.732-0.673-0.049-1.587 0.145-2.132 0.571-1.142 0.89-1.865 1.971-2.461 3.284-0.716 1.577-1.46 3.125-2.242 4.674-0.056 0.112-0.114 0.227-0.172 0.341-0.376 0.241-0.603 0.586-0.492 0.972-0.608 1.202-1.23 2.399-1.922 3.549-0.23-4.257-0.733-8.51-0.885-12.772-0.033-0.976-3.055-0.368-3.011 0.809 0.186 5.284 0.935 10.556 0.989 15.838-0.012 0.014-0.026 0.028-0.037 0.041z"></path>
<path d="M78.159 14.234c-0.162-0.64-1.055-0.654-1.748-0.592-0.009-0.257-0.016-0.517-0.026-0.775-0.097-2.047-0.127-4.138-0.3-6.179-0.161-1.89-1.219-2.568-3.056-2.497-1.859 0.070-4.023 0.405-5.756 1.081-2.007 0.779-3.125 2.257-3.508 4.37-0.424 2.319 0.184 4.784 0.286 7.114 0.119 2.695 0.051 5.397 0.049 8.092 0 0.442 3.011 0.025 3.011-0.807 0.004-2.136 0.034-4.271 0-6.407-0.010-0.628-0.039-1.255-0.078-1.879 1.055-0.456 2.837 0.009 3.886 0.108 0.852 0.081 1.668-0.126 2.495-0.223 0.016 1.777 0.082 3.567 0.155 5.344 0.038 0.911 0.367 2.717-0.271 3.47-0.336 0.398 1.141 0.263 1.197 0.256 0.61-0.113 1.354-0.309 1.771-0.795 0.731-0.86 0.351-2.916 0.309-3.942-0.059-1.471-0.079-2.944-0.111-4.415 0.889-0.125 1.861-0.67 1.695-1.323zM72.074 14.086c-1.761-0.042-3.496-0.319-5.162 0.033-0.079-0.96-0.167-1.916-0.233-2.881-0.122-1.792 0.090-4.295 1.761-5.385 0.449-0.29 1.291-0.241 1.812-0.336 0.748-0.134 1.504-0.3 2.178 0.146 0.93 0.617 0.702 2.813 0.7 3.746-0.002 1.544 0.162 3.078 0.239 4.621-0.426 0.042-0.858 0.066-1.295 0.057z"></path>
<path d="M17.081 3.75c-0.044 0.164 0.012 0.325 0.109 0.454 0 0.036 0.002 0.069 0.002 0.104 0.004 0.086 0.008 0.172 0.012 0.258 0.057 0.177 0.166 0.313 0.331 0.407 0.297 0.179 0.673 0.212 1.012 0.179 0.401-0.037 0.806-0.174 1.137-0.401 0.066-0.057 0.131-0.111 0.197-0.167 0.4-0.258 0.747-0.637 0.559-1.047-0.387-0.851-0.327-1.717-0.32-2.621 0.005-0.738-0.742-0.96-1.371-0.903-0.555 0.049-1.669 0.447-1.672 1.168-0.006 0.764-0.057 1.551 0.084 2.304-0.037 0.080-0.058 0.177-0.079 0.266z"></path>
<path d="M73.326 30.406c-1.423-0.534-2.999-0.562-4.431-0.719-1.464-0.155-2.964-0.375-4.461-0.513-1.495 0.048-3.023 0.025-4.541 0.118l-4.457 0.245c-5.925 0.264-11.873 0.231-17.827 0.098-5.953-0.112-11.915-0.436-17.93-0.414-3.003 0.007-5.996 0.090-9.008 0.228-1.491 0.259-2.958 0.458-4.479 0.834-1.475 0.364-2.873 0.828-4.379 0.957 1.482 0.331 3.052 0.267 4.532 0.271 1.442 0.009 2.962 0.131 4.45 0.211 2.949-0.157 5.925-0.225 8.89-0.228 5.925-0.022 11.888 0.3 17.871 0.412 5.981 0.133 11.978 0.17 17.978-0.1l4.482-0.246c1.464-0.065 2.921-0.116 4.411-0.061 1.487-0.135 2.971-0.301 4.492-0.486 1.52-0.217 2.941-0.573 4.434-0.465l0.068 0.005 0.005-0.050c0.019-0.163-0.037-0.295-0.037-0.438-0.030 0.109-0.035 0.234-0.063 0.341z"></path>
</symbol>
<symbol id="icon-logo-tablet" viewBox="0 0 78 32">
<title>logo-tablet</title>
<path fill="#000" style="fill: var(--color6, #000)" d="M76.535 29.080c3.051 0.603 0.585-24.898 0.102-26.601-1.361-4.561-18.523-1.489-22.344-1.192-8.834 0.685-17.49-0.667-26.115-0.261-4.308 0.203-24.201-1.259-26.051 1.379-3.505 5.005-1.841 17.912-0.887 24.355-2.807 0.541 1.603 2.884 2.179 3.4 4.384 1.522 11.358-0.152 15.975 0.275 10.716 1.022 22.078-1.523 32.826-0.663 3.122 0.794 6.668 0.708 9.876 0.86 2.37 3.869 13.653-1.709 14.439-1.552-0.069-0.014 0.352 0.069 0 0z"></path>
<path fill="#fff" style="fill: var(--color1, #fff)" d="M18.093 16.949c-0.055-1.768-0.336-3.523-0.313-5.294 0.018-1.432 0.257-2.906-0.237-4.28 0.030-0.156 0.063-0.312 0.092-0.469 0.128-0.689-2.155-0.324-2.514 0.306-0.226 0.185-0.342 0.405-0.246 0.63 0.024 0.057 0.045 0.115 0.067 0.171-0.433 2.111-1.035 4.156-1.727 6.202-0.265 0.783-0.585 1.548-0.855 2.329-0.384-0.728-0.771-1.446-1.083-2.226-0.905-2.261-1.721-4.548-2.825-6.725 0.126-1.008-2.11-0.902-2.551 0.021-0.533 1.116-0.464 2.242-0.289 3.436 0.198 1.346 0.232 2.668 0.249 4.027 0.031 2.618 0.235 5.233 0.275 7.854-0.233 0.258-0.304 0.58-0.060 0.906 0.106 0.141 0.239 0.251 0.376 0.362 0.596 0.477 2.307 0.070 2.304-0.838-0.009-2.716-0.205-5.426-0.277-8.143-0.007-0.266-0.012-0.532-0.015-0.798 0.038 0.095 0.075 0.191 0.113 0.285 0.421 1.057 0.863 2.084 1.439 3.066 0.572 0.973 0.859 2.019 1.188 3.081-0.124 0.143-0.2 0.305-0.153 0.468-0.026 0.117 0.047 0.191 0.165 0.237 0.421 0.36 1.213 0.181 1.653-0.006 0.19-0.079 0.369-0.172 0.544-0.278 0.227-0.14 0.582-0.448 0.48-0.764-0.019-0.062-0.039-0.122-0.058-0.184 0.31-0.836 0.468-1.705 0.637-2.588 0.18-0.942 0.515-1.833 0.853-2.725 0.034 0.408 0.069 0.817 0.102 1.223 0.135 1.682 0.022 3.341 0.006 5.024-0.006 0.558 0.035 1.076 0.144 1.623 0.044 0.225 0.242 1.19 0.185 1.243-0.403 0.371-0.286 0.828 0.254 0.946 0.603 0.132 1.371-0.070 1.825-0.489 0.789-0.729 0.417-1.874 0.237-2.794-0.298-1.542 0.063-3.27 0.015-4.842z"></path>
<path fill="#fff" style="fill: var(--color1, #fff)" d="M23.604 17.395c-0.048-1.311-0.503-2.545-0.51-3.87-0.007-1.519 0.119-3.026-0.101-4.537-0.070-0.478-2.672 0.066-2.581 0.692 0.203 1.39 0.13 2.787 0.105 4.186-0.024 1.348 0.308 2.568 0.482 3.89 0.176 1.354-0.056 2.739 0.098 4.095 0.072 0.634 0.494 1.807 0.058 2.359-0.276 0.351 0.968 0.224 1.023 0.215 0.506-0.094 1.182-0.258 1.518-0.685 0.43-0.544 0.129-1.597 0.035-2.211-0.21-1.357-0.076-2.766-0.128-4.133z"></path>
<path fill="#fff" style="fill: var(--color1, #fff)" d="M34.364 15.206c-1.359-1.834-3.881-0.513-5.642-1.014-0.908-0.258-0.919-1.496-0.916-2.239 0.002-0.939-0.075-1.8-0.181-2.732-0.078-0.693-0.015-1.398 0.492-1.913 0.094-0.095 0.566-0.221 0.533-0.224 0.233-0.040 0.446-0.050 0.703-0.061 1.020-0.044 3.038 0.153 2.648 1.636-0.176 0.665 2.37 0.284 2.555-0.419 0.798-3.030-4.801-2.448-6.382-2.028-1.457 0.387-3.063 1.216-3.146 2.898-0.041 0.803 0.178 1.568 0.215 2.364 0.040 0.916-0.131 1.83 0.19 2.713 0.713 1.966 3.637 1.038 5.124 1.15 2.534 0.188 1.778 3.604 1.811 5.194 0.017 0.85 0.778 2.26 0.139 2.97-0.392 0.435-1.306 0.461-1.839 0.506-0.536 0.044-1.45 0.206-1.808-0.304-0.654-0.934 0.060-2.503-0.079-3.573-0.080-0.61-2.679-0.063-2.581 0.691 0.226 1.73-0.922 4.048 1.582 4.345 1.609 0.191 3.42-0.106 4.942-0.612 0.788-0.261 1.519-0.621 2.136-1.181 0.682-0.619 0.458-1.547 0.275-2.336-0.445-1.923 0.483-4.135-0.772-5.83z"></path>
<path fill="#fff" style="fill: var(--color1, #fff)" d="M45.78 15.082c-0.079-2.489-0.453-4.95-0.465-7.443-0.005-1.299-2.612-0.86-2.607 0.226 0.010 2.377 0.328 4.722 0.449 7.093 0.003 0.047 0.006 0.096 0.008 0.145-1.285-0.012-2.568 0.117-3.856 0.162 0.133-3.052-0.403-6.080-0.285-9.13 0.015-0.384-2.553-0.059-2.582 0.691-0.112 2.95 0.387 5.875 0.299 8.824-0.042 1.407-0.161 2.809-0.172 4.217-0.005 0.721 0.114 1.44 0.217 2.151 0.096 0.658 0.318 1.536 0.119 2.186-0.156 0.508 2.346 0.191 2.545-0.458 0.358-1.171-0.147-2.662-0.266-3.847-0.116-1.136-0.027-2.305 0.054-3.458 1.337-0.085 2.675-0.195 4.006-0.008 0.058 0.908 0.129 1.814 0.212 2.725 0.070 0.763 0.119 1.523 0.13 2.29 0.011 0.671 0.094 1.643-0.146 2.279-0.509 1.356 2.076 1.244 2.453 0.241 0.463-1.232 0.331-2.766 0.252-4.062-0.1-1.611-0.315-3.213-0.367-4.825z"></path>
<path fill="#fff" style="fill: var(--color1, #fff)" d="M56.937 18.031c-0.619-1.817-1.564-3.411-2.382-5.137 0.66-1.285 1.33-2.569 1.932-3.88 0.547-1.191 0.953-2.516 2.029-3.356 0.378-0.294 0.362-0.59-0.169-0.626-0.576-0.040-1.36 0.126-1.825 0.489-0.978 0.763-1.598 1.689-2.107 2.812-0.614 1.351-1.251 2.677-1.92 4.003-0.048 0.097-0.098 0.194-0.148 0.292-0.323 0.208-0.517 0.502-0.421 0.834-0.521 1.030-1.054 2.055-1.646 3.038-0.197-3.645-0.628-7.288-0.759-10.937-0.028-0.837-2.616-0.316-2.579 0.692 0.16 4.525 0.802 9.041 0.848 13.565-0.012 0.012-0.022 0.023-0.033 0.033-0.198 0.203-0.124 0.326 0.035 0.396 0.001 1.153-0.040 2.307-0.138 3.461-0.311 0.492 0.305 0.751 0.714 0.751 0.022 0 0.042 0 0.064 0 0.487 0 1.729-0.23 1.791-0.898 0.126-1.383 0.165-2.764 0.153-4.146 1.047-1.13 1.903-2.391 2.672-3.713 0.5 0.976 0.976 1.959 1.31 3.020 0.567 1.807 1.515 3.465 2.063 5.28 0.36 1.189 2.936 0.487 2.581-0.692-0.55-1.813-1.453-3.488-2.065-5.28z"></path>
<path fill="#fff" style="fill: var(--color1, #fff)" d="M72.424 14.977c-0.138-0.549-0.904-0.56-1.497-0.508-0.008-0.221-0.014-0.442-0.023-0.664-0.083-1.753-0.11-3.544-0.258-5.292-0.137-1.619-1.045-2.199-2.618-2.139-1.592 0.060-3.445 0.347-4.931 0.925-1.718 0.668-2.675 1.933-3.004 3.743-0.362 1.986 0.158 4.097 0.246 6.093 0.101 2.308 0.043 4.621 0.041 6.93 0 0.378 2.581 0.021 2.581-0.692 0.003-1.828 0.028-3.658 0-5.485-0.009-0.54-0.034-1.076-0.067-1.609 0.903-0.391 2.429 0.008 3.327 0.092 0.73 0.069 1.43-0.108 2.138-0.191 0.014 1.523 0.070 3.055 0.133 4.576 0.033 0.779 0.315 2.327-0.233 2.971-0.287 0.341 0.976 0.226 1.024 0.218 0.523-0.096 1.16-0.265 1.518-0.686 0.626-0.737 0.301-2.498 0.265-3.377-0.051-1.26-0.067-2.52-0.094-3.779 0.76-0.101 1.593-0.567 1.451-1.127zM62.792 14.878c-0.069-0.821-0.144-1.641-0.2-2.466-0.104-1.536 0.077-3.679 1.508-4.612 0.384-0.25 1.104-0.207 1.552-0.289 0.64-0.115 1.289-0.256 1.864 0.126 0.797 0.529 0.601 2.409 0.599 3.208-0.001 1.322 0.137 2.636 0.205 3.956-0.364 0.036-0.733 0.058-1.109 0.051-1.506-0.037-2.993-0.274-4.419 0.026z"></path>
<path fill="#fff" style="fill: var(--color1, #fff)" d="M21.37 7.2c0.344-0.033 0.689-0.149 0.973-0.345 0.057-0.047 0.112-0.096 0.169-0.143 0.342-0.221 0.639-0.545 0.479-0.896-0.333-0.728-0.28-1.47-0.274-2.25 0.004-0.63-0.635-0.821-1.173-0.773-0.476 0.042-1.429 0.383-1.432 1.002-0.005 0.654-0.047 1.328 0.072 1.972-0.032 0.074-0.049 0.157-0.069 0.233-0.037 0.14 0.010 0.277 0.094 0.389 0 0.029 0.001 0.059 0.001 0.088 0.003 0.074 0.007 0.147 0.010 0.221 0.049 0.153 0.142 0.269 0.283 0.349 0.255 0.154 0.578 0.183 0.867 0.154z"></path>
</symbol>
</defs>
</svg>
